<?xml version="1.0" encoding="UTF-8" standalone="no"?>
<svg
   xmlns:dc="http://purl.org/dc/elements/1.1/"
   xmlns:cc="http://creativecommons.org/ns#"
   xmlns:rdf="http://www.w3.org/1999/02/22-rdf-syntax-ns#"
   xmlns:svg="http://www.w3.org/2000/svg"
   xmlns="http://www.w3.org/2000/svg"
   xmlns:xlink="http://www.w3.org/1999/xlink"
   xmlns:sodipodi="http://sodipodi.sourceforge.net/DTD/sodipodi-0.dtd"
   xmlns:inkscape="http://www.inkscape.org/namespaces/inkscape"
   width="200"
   height="200"
   viewBox="0 0 52.916666 52.916666"
   version="1.1"
   id="svg8"
   inkscape:export-filename="C:\Users\adrig\Desktop\iconDB.png"
   inkscape:export-xdpi="92.050003"
   inkscape:export-ydpi="92.050003"
   inkscape:version="1.0 (4035a4fb49, 2020-05-01)"
   sodipodi:docname="iconDB.svg">
  <defs
     id="defs2">
    <linearGradient
       inkscape:collect="always"
       id="linearGradient923">
      <stop
         style="stop-color:#d34242;stop-opacity:1;"
         offset="0"
         id="stop919" />
      <stop
         style="stop-color:#d34242;stop-opacity:0;"
         offset="1"
         id="stop921" />
    </linearGradient>
    <rect
       x="6.0067568"
       y="6.7933559"
       width="8.5115118"
       height="12.585586"
       id="rect18" />
    <rect
       id="rect26"
       height="15.016892"
       width="29.747747"
       y="6.7933559"
       x="6.0067568" />
    <rect
       id="rect885"
       height="12.585586"
       width="8.5115118"
       y="6.7933559"
       x="6.0067568" />
    <linearGradient
       inkscape:collect="always"
       xlink:href="#linearGradient923"
       id="linearGradient929"
       x1="5.641314"
       y1="27.491217"
       x2="47.481888"
       y2="27.491217"
       gradientUnits="userSpaceOnUse" />
  </defs>
  <sodipodi:namedview
     id="base"
     pagecolor="#ffffff"
     bordercolor="#666666"
     borderopacity="1.0"
     inkscape:pageopacity="0.0"
     inkscape:pageshadow="2"
     inkscape:zoom="2.2466286"
     inkscape:cx="-12.6028"
     inkscape:cy="120.15069"
     inkscape:document-units="mm"
     inkscape:current-layer="layer2"
     inkscape:document-rotation="0"
     showgrid="false"
     units="px"
     showguides="true"
     inkscape:guide-bbox="true"
     inkscape:window-width="1360"
     inkscape:window-height="745"
     inkscape:window-x="-8"
     inkscape:window-y="-8"
     inkscape:window-maximized="1" />
  <metadata
     id="metadata5">
    <rdf:RDF>
      <cc:Work
         rdf:about="">
        <dc:format>image/svg+xml</dc:format>
        <dc:type
           rdf:resource="http://purl.org/dc/dcmitype/StillImage" />
        <dc:title></dc:title>
      </cc:Work>
    </rdf:RDF>
  </metadata>
  <g
     inkscape:groupmode="layer"
     id="layer2"
     inkscape:label="Worker">
    <g
       id="g44"
       inkscape:label="2"
       transform="matrix(1.7570037,0,0,1.7570037,-0.33035998,11.365714)">
      <ellipse
         inkscape:label="cabeza"
         ry="2.6458333"
         rx="2.6722918"
         cy="5.4346848"
         cx="9.8682442"
         id="path32"
         style="opacity:0.998;fill:#d34242;fill-opacity:1;stroke:#357d11;stroke-width:0" />
      <path
         inkscape:label="body"
         d="m 7.2178014,8.6256657 a 3.3223086,4.6480851 0 0 0 -0.703833,2.8602903 3.3223086,4.6480851 0 0 0 3.322278,4.648295 3.3223086,4.6480851 0 0 0 3.3222776,-4.648295 3.3223086,4.6480851 0 0 0 -0.703316,-2.8602903 z"
         style="opacity:0.998;fill:#d34242;fill-opacity:1;stroke:#357d11;stroke-width:0"
         id="ellipse34" />
    </g>
    <g
       inkscape:label="1"
       id="g50"
       transform="matrix(0.97559203,0,0,0.97559203,18.580307,14.04752)">
      <ellipse
         style="opacity:0.998;fill:#439743;fill-opacity:1;stroke:#357d11;stroke-width:0"
         id="ellipse46"
         cx="9.8682442"
         cy="5.4346848"
         rx="2.6722918"
         ry="2.6458333"
         inkscape:label="cabeza" />
      <path
         id="path48"
         style="opacity:0.998;fill:#439743;fill-opacity:1;stroke:#357d11;stroke-width:0"
         d="m 7.2178014,8.6256657 a 3.3223086,4.6480851 0 0 0 -0.703833,2.8602903 3.3223086,4.6480851 0 0 0 3.322278,4.648295 3.3223086,4.6480851 0 0 0 3.3222776,-4.648295 3.3223086,4.6480851 0 0 0 -0.703316,-2.8602903 z"
         inkscape:label="body" />
    </g>
    <g
       inkscape:label="3"
       id="g56"
       transform="matrix(1.5875409,0,0,1.5875409,21.378736,10.958829)"
       style="fill:#008000">
      <ellipse
         style="opacity:0.998;fill:#62dc62;fill-opacity:1;stroke:#357d11;stroke-width:0"
         id="ellipse52"
         cx="9.8682442"
         cy="5.4346848"
         rx="2.6722918"
         ry="2.6458333"
         inkscape:label="cabeza" />
      <path
         id="path54"
         style="opacity:0.998;fill:#62dc62;fill-opacity:1;stroke:#357d11;stroke-width:0"
         d="m 7.2178014,8.6256657 a 3.3223086,4.6480851 0 0 0 -0.703833,2.8602903 3.3223086,4.6480851 0 0 0 3.322278,4.648295 3.3223086,4.6480851 0 0 0 3.3222776,-4.648295 3.3223086,4.6480851 0 0 0 -0.703316,-2.8602903 z"
         inkscape:label="body" />
    </g>
    <circle
       sodipodi:insensitive="true"
       style="opacity:1;mix-blend-mode:darken;fill:#ffffff;fill-opacity:1;stroke:url(#linearGradient929);stroke-width:0.696;stroke-miterlimit:4;stroke-dasharray:none;stroke-opacity:1"
       id="path889"
       cx="26.5616"
       cy="27.491217"
       r="20.872286"
       inkscape:export-xdpi="92.050003"
       inkscape:export-ydpi="92.050003" />
  </g>
  <g
     inkscape:label="Capa 1"
     inkscape:groupmode="layer"
     id="layer1" />
</svg>
